<svg xmlns="http://www.w3.org/2000/svg" width="25" height="25" viewBox="0 0 25 25" fill="none">
    <path fill-rule="evenodd" clip-rule="evenodd" d="M18.1814 5.43745C18.1814 5.43747 18.1814 5.43744 18.1814 5.43745L6.56125 12.3919C6.53932 12.405 6.5 12.4462 6.5 12.5354C6.5 12.6246 6.53917 12.6657 6.56111 12.6788L18.1814 19.6333C18.1813 19.6333 18.1815 19.6334 18.1814 19.6333C18.2217 19.6573 18.2514 19.6612 18.2722 19.6604C18.296 19.6595 18.3267 19.6517 18.3604 19.6297C18.4269 19.5865 18.5 19.4899 18.5 19.3323V5.73852C18.5 5.58085 18.4269 5.48434 18.3604 5.4411C18.3267 5.41914 18.296 5.41126 18.2722 5.41035C18.2513 5.40956 18.2218 5.41335 18.1814 5.43745ZM19.1786 4.18392C19.6747 4.50678 20 5.0787 20 5.73852V19.3323C20 19.9921 19.6747 20.564 19.1786 20.8869C18.6762 21.2139 18.0049 21.2751 17.4124 20.9212L5.79108 13.9661C5.24489 13.6393 5 13.0633 5 12.5354C5 12.0075 5.24489 11.4315 5.79108 11.1047L17.4117 4.14997C18.0043 3.79612 18.6762 3.85693 19.1786 4.18392Z" fill="#EFEFEF"/>
    <path fill-rule="evenodd" clip-rule="evenodd" d="M5.75 3.5354C6.16421 3.5354 6.5 3.87119 6.5 4.2854V20.7854C6.5 21.1996 6.16421 21.5354 5.75 21.5354C5.33579 21.5354 5 21.1996 5 20.7854V4.2854C5 3.87119 5.33579 3.5354 5.75 3.5354Z" fill="#EFEFEF"/>
</svg>