<svg xmlns="http://www.w3.org/2000/svg" width="20" height="20" viewBox="0 0 20 20" fill="none">
    <path fill-rule="evenodd" clip-rule="evenodd" d="M5.65867 4.2215C4.54089 4.7803 4.16667 5.39825 4.16667 5.83342C4.16667 6.26858 4.54089 6.88653 5.65867 7.44532C6.72668 7.97924 8.26043 8.33342 10 8.33342C11.7396 8.33342 13.2733 7.97924 14.3413 7.44532C15.4591 6.88653 15.8333 6.26858 15.8333 5.83342C15.8333 5.39825 15.4591 4.7803 14.3413 4.2215C13.2733 3.68759 11.7396 3.33341 10 3.33341C8.26043 3.33341 6.72668 3.68759 5.65867 4.2215ZM17.5 5.83342C17.5 4.42691 16.3817 3.3782 15.0866 2.73074C13.7417 2.0584 11.9421 1.66675 10 1.66675C8.0579 1.66675 6.25832 2.0584 4.91341 2.73074C3.61828 3.3782 2.5 4.42691 2.5 5.83342V14.1667C2.5 15.5732 3.61828 16.622 4.91341 17.2694C6.25832 17.9418 8.0579 18.3334 10 18.3334C11.9421 18.3334 13.7417 17.9418 15.0866 17.2694C16.3817 16.622 17.5 15.5732 17.5 14.1667V5.83342ZM15.8333 8.50088C15.5964 8.6617 15.345 8.80688 15.0866 8.93609C13.7417 9.60842 11.9421 10.0001 10 10.0001C8.0579 10.0001 6.25832 9.60842 4.91341 8.93609C4.65496 8.80688 4.40355 8.6617 4.16667 8.50088V10.0001C4.16667 10.4352 4.54089 11.0532 5.65867 11.612C6.72668 12.1459 8.26043 12.5001 10 12.5001C11.7396 12.5001 13.2733 12.1459 14.3413 11.612C15.4591 11.0532 15.8333 10.4352 15.8333 10.0001V8.50088ZM15.8333 12.6676C15.5964 12.8284 15.345 12.9736 15.0866 13.1028C13.7417 13.7751 11.9421 14.1667 10 14.1667C8.0579 14.1667 6.25832 13.7751 4.91341 13.1028C4.65496 12.9736 4.40355 12.8284 4.16667 12.6676V14.1667C4.16667 14.6019 4.54089 15.2199 5.65867 15.7787C6.72668 16.3126 8.26043 16.6667 10 16.6667C11.7396 16.6667 13.2733 16.3126 14.3413 15.7787C15.4591 15.2199 15.8333 14.6019 15.8333 14.1667V12.6676Z" fill="black"/>
</svg>