<svg xmlns="http://www.w3.org/2000/svg" width="25" height="25" viewBox="0 0 25 25" fill="none">
    <path fill-rule="evenodd" clip-rule="evenodd" d="M5.82136 4.18388C6.32377 3.8569 6.99506 3.79571 7.58764 4.14956L19.2084 11.1047C19.2084 11.1047 19.2085 11.1047 19.2084 11.1047C19.7545 11.4314 19.9995 12.0075 19.9995 12.5354C19.9995 13.0632 19.7547 13.6392 19.2086 13.9659C19.2086 13.966 19.2087 13.9659 19.2086 13.9659L7.58829 20.9208C6.99571 21.2746 6.32377 21.2138 5.82136 20.8869C5.32529 20.564 5 19.9921 5 19.3322V5.73849C5 5.07866 5.32529 4.50674 5.82136 4.18388ZM6.63958 5.44107C6.57315 5.4843 6.5 5.58082 6.5 5.73849V19.3322C6.5 19.4899 6.57315 19.5864 6.63958 19.6297C6.67332 19.6516 6.70401 19.6595 6.72775 19.6604C6.7486 19.6612 6.77799 19.6575 6.81818 19.6336C6.81804 19.6337 6.81832 19.6335 6.81818 19.6336L18.4383 12.6789C18.4602 12.6657 18.4995 12.6246 18.4995 12.5354C18.4995 12.4461 18.4604 12.4051 18.4384 12.392L6.81861 5.43742C6.81853 5.43738 6.81868 5.43746 6.81861 5.43742C6.77831 5.41341 6.74864 5.40953 6.72775 5.41032C6.70401 5.41122 6.67332 5.41911 6.63958 5.44107Z" fill="#EFEFEF"/>
    <path fill-rule="evenodd" clip-rule="evenodd" d="M19.25 3.5354C19.6642 3.5354 20 3.87119 20 4.2854V20.7854C20 21.1996 19.6642 21.5354 19.25 21.5354C18.8358 21.5354 18.5 21.1996 18.5 20.7854V4.2854C18.5 3.87119 18.8358 3.5354 19.25 3.5354Z" fill="#EFEFEF"/>
</svg>