<svg xmlns="http://www.w3.org/2000/svg" width="24" height="25" viewBox="0 0 24 25" fill="none">
    <path d="M12 22.5708C9.21523 22.5708 6.54451 21.4646 4.57538 19.4954C2.60625 17.5263 1.5 14.8556 1.5 12.0708C1.5 9.28603 2.60625 6.61531 4.57538 4.64618C6.54451 2.67705 9.21523 1.5708 12 1.5708C14.7848 1.5708 17.4555 2.67705 19.4246 4.64618C21.3938 6.61531 22.5 9.28603 22.5 12.0708C22.5 14.8556 21.3938 17.5263 19.4246 19.4954C17.4555 21.4646 14.7848 22.5708 12 22.5708ZM12 24.0708C15.1826 24.0708 18.2348 22.8065 20.4853 20.5561C22.7357 18.3056 24 15.2534 24 12.0708C24 8.8882 22.7357 5.83596 20.4853 3.58552C18.2348 1.33508 15.1826 0.0708008 12 0.0708008C8.8174 0.0708008 5.76516 1.33508 3.51472 3.58552C1.26428 5.83596 0 8.8882 0 12.0708C0 15.2534 1.26428 18.3056 3.51472 20.5561C5.76516 22.8065 8.8174 24.0708 12 24.0708Z" fill="black"/>
    <path d="M13.3949 9.9528L9.95993 10.3833L9.83693 10.9533L10.5119 11.0778C10.9529 11.1828 11.0399 11.3418 10.9439 11.7813L9.83693 16.9833C9.54593 18.3288 9.99443 18.9618 11.0489 18.9618C11.8664 18.9618 12.8159 18.5838 13.2464 18.0648L13.3784 17.4408C13.0784 17.7048 12.6404 17.8098 12.3494 17.8098C11.9369 17.8098 11.7869 17.5203 11.8934 17.0103L13.3949 9.9528ZM13.4999 6.8208C13.4999 7.21863 13.3419 7.60016 13.0606 7.88146C12.7793 8.16277 12.3978 8.3208 11.9999 8.3208C11.6021 8.3208 11.2206 8.16277 10.9393 7.88146C10.658 7.60016 10.4999 7.21863 10.4999 6.8208C10.4999 6.42298 10.658 6.04145 10.9393 5.76014C11.2206 5.47884 11.6021 5.3208 11.9999 5.3208C12.3978 5.3208 12.7793 5.47884 13.0606 5.76014C13.3419 6.04145 13.4999 6.42298 13.4999 6.8208Z" fill="black"/>
</svg>