<svg xmlns="http://www.w3.org/2000/svg" width="24" height="25" viewBox="0 0 24 25" fill="none">
    <path d="M12 6.26758C8.691 6.26758 6 8.95858 6 12.2676C6 15.5766 8.691 18.2676 12 18.2676C15.309 18.2676 18 15.5766 18 12.2676C18 8.95858 15.309 6.26758 12 6.26758ZM12 16.2676C9.794 16.2676 8 14.4736 8 12.2676C8 10.0616 9.794 8.26758 12 8.26758C14.206 8.26758 16 10.0616 16 12.2676C16 14.4736 14.206 16.2676 12 16.2676Z" fill="black"/>
    <path d="M12 2.26758C6.579 2.26758 2 6.84658 2 12.2676C2 17.6886 6.579 22.2676 12 22.2676C17.421 22.2676 22 17.6886 22 12.2676C22 6.84658 17.421 2.26758 12 2.26758ZM12 20.2676C7.663 20.2676 4 16.6046 4 12.2676C4 7.93058 7.663 4.26758 12 4.26758C16.337 4.26758 20 7.93058 20 12.2676C20 16.6046 16.337 20.2676 12 20.2676Z" fill="black"/>
    <path d="M12 10.2676C10.919 10.2676 10 11.1866 10 12.2676C10 13.3486 10.919 14.2676 12 14.2676C13.081 14.2676 14 13.3486 14 12.2676C14 11.1866 13.081 10.2676 12 10.2676Z" fill="black"/>
</svg>