<svg xmlns="http://www.w3.org/2000/svg" width="24" height="24" viewBox="0 0 24 24" fill="none">
    <path fill-rule="evenodd" clip-rule="evenodd" d="M8.00506 3.76165C9.24408 3.1661 10.6015 2.85769 11.9762 2.85938L11.9753 3.60899V2.85938C11.9756 2.85938 11.9759 2.85938 11.9762 2.85938C17.0271 2.85988 21.1253 6.94668 21.1253 11.9902V13.387C21.1253 13.8013 20.7895 14.137 20.3753 14.137C19.961 14.137 19.6253 13.8013 19.6253 13.387V11.9902C19.6253 7.77802 16.2014 4.35938 11.9753 4.35938L11.9743 4.35938C10.8252 4.35797 9.69058 4.61576 8.65489 5.11358C7.6192 5.6114 6.70914 6.33641 5.99245 7.23465C5.73411 7.55843 5.26221 7.61148 4.93843 7.35314C4.61465 7.0948 4.5616 6.6229 4.81994 6.29912C5.67732 5.22454 6.76605 4.35719 8.00506 3.76165ZM3.6001 9.86063C4.01431 9.86063 4.3501 10.1964 4.3501 10.6106V12.0075C4.3501 16.2245 7.77157 19.64 11.999 19.6406C13.1458 19.639 14.2777 19.3815 15.3123 18.8869C16.3469 18.3924 17.2582 17.6732 17.9796 16.7819C18.2402 16.4599 18.7125 16.4102 19.0345 16.6708C19.3564 16.9314 19.4062 17.4037 19.1456 17.7256C18.2837 18.7904 17.1951 19.6495 15.9592 20.2403C14.7232 20.8311 13.3711 21.1386 12.0012 21.1406H12.0001C6.94679 21.1406 2.8501 17.0564 2.8501 12.0075V10.6106C2.8501 10.1964 3.18588 9.86063 3.6001 9.86063Z" fill="black"/>
    <path fill-rule="evenodd" clip-rule="evenodd" d="M3.03217 9.40717C3.32047 9.11887 3.78628 9.11369 4.08092 9.39552L6.23717 11.458C6.5365 11.7443 6.54705 12.2191 6.26073 12.5184C5.97442 12.8177 5.49966 12.8283 5.20033 12.542L3.57415 10.9865L2.03033 12.5303C1.73744 12.8232 1.26256 12.8232 0.96967 12.5303C0.676777 12.2374 0.676777 11.7626 0.96967 11.4697L3.03217 9.40717ZM17.7393 11.4816C18.0256 11.1823 18.5003 11.1717 18.7997 11.458L20.4258 13.0135L21.9697 11.4697C22.2626 11.1768 22.7374 11.1768 23.0303 11.4697C23.3232 11.7626 23.3232 12.2374 23.0303 12.5303L20.9678 14.5928C20.6795 14.8811 20.2137 14.8863 19.9191 14.6045L17.7628 12.542C17.4635 12.2557 17.453 11.7809 17.7393 11.4816Z" fill="black"/>
</svg>