<svg xmlns="http://www.w3.org/2000/svg" width="24" height="25" viewBox="0 0 24 25" fill="none">
    <path fill-rule="evenodd" clip-rule="evenodd" d="M3.87868 2.6819C4.44129 2.11929 5.20435 1.80322 6 1.80322H14C14.2652 1.80322 14.5196 1.90858 14.7071 2.09612L20.7071 8.09612C20.8946 8.28365 21 8.53801 21 8.80322V20.8032C21 21.5989 20.6839 22.3619 20.1213 22.9245C19.5587 23.4872 18.7957 23.8032 18 23.8032H6C5.20435 23.8032 4.44129 23.4872 3.87868 22.9245C3.31607 22.3619 3 21.5989 3 20.8032V4.80322C3 4.00757 3.31607 3.24451 3.87868 2.6819ZM6 3.80322C5.73478 3.80322 5.48043 3.90858 5.29289 4.09612C5.10536 4.28365 5 4.53801 5 4.80322V20.8032C5 21.0684 5.10536 21.3228 5.29289 21.5103C5.48043 21.6979 5.73478 21.8032 6 21.8032H18C18.2652 21.8032 18.5196 21.6979 18.7071 21.5103C18.8946 21.3228 19 21.0684 19 20.8032V9.21744L13.5858 3.80322H6Z" fill="black"/>
    <path fill-rule="evenodd" clip-rule="evenodd" d="M14 1.80322C14.5523 1.80322 15 2.25094 15 2.80322V7.80322H20C20.5523 7.80322 21 8.25094 21 8.80322C21 9.35551 20.5523 9.80322 20 9.80322H14C13.4477 9.80322 13 9.35551 13 8.80322V2.80322C13 2.25094 13.4477 1.80322 14 1.80322Z" fill="black"/>
    <path fill-rule="evenodd" clip-rule="evenodd" d="M7 13.8032C7 13.2509 7.44772 12.8032 8 12.8032H16C16.5523 12.8032 17 13.2509 17 13.8032C17 14.3555 16.5523 14.8032 16 14.8032H8C7.44772 14.8032 7 14.3555 7 13.8032Z" fill="black"/>
    <path fill-rule="evenodd" clip-rule="evenodd" d="M7 17.8032C7 17.2509 7.44772 16.8032 8 16.8032H16C16.5523 16.8032 17 17.2509 17 17.8032C17 18.3555 16.5523 18.8032 16 18.8032H8C7.44772 18.8032 7 18.3555 7 17.8032Z" fill="black"/>
    <path fill-rule="evenodd" clip-rule="evenodd" d="M7 9.80322C7 9.25094 7.44772 8.80322 8 8.80322H10C10.5523 8.80322 11 9.25094 11 9.80322C11 10.3555 10.5523 10.8032 10 10.8032H8C7.44772 10.8032 7 10.3555 7 9.80322Z" fill="black"/>
</svg>