<svg xmlns="http://www.w3.org/2000/svg" width="24" height="25" viewBox="0 0 24 25" fill="none">
    <path fill-rule="evenodd" clip-rule="evenodd" d="M6 10.7676H4.5V3.26758H6V10.7676ZM4.5 21.2676H6V16.7676H4.5V21.2676ZM12 21.2676H13.5V12.2676H12V21.2676ZM19.5 21.2676H21V18.2676H19.5V21.2676ZM21 3.26758H19.5V12.2676H21V3.26758ZM13.5 3.26758H12V6.26758H13.5V3.26758ZM7.5 12.2676H3C2.175 12.2676 1.5 12.9426 1.5 13.7676C1.5 14.5926 2.175 15.2676 3 15.2676H7.5C8.325 15.2676 9 14.5926 9 13.7676C9 12.9426 8.325 12.2676 7.5 12.2676ZM15 7.76758H10.5C9.675 7.76758 9 8.44258 9 9.26758C9 10.0926 9.675 10.7676 10.5 10.7676H15C15.825 10.7676 16.5 10.0926 16.5 9.26758C16.5 8.44258 15.825 7.76758 15 7.76758ZM22.5 13.7676H18C17.175 13.7676 16.5 14.4426 16.5 15.2676C16.5 16.0926 17.175 16.7676 18 16.7676H22.5C23.325 16.7676 24 16.0926 24 15.2676C24 14.4426 23.325 13.7676 22.5 13.7676Z" fill="black"/>
</svg>