<svg xmlns="http://www.w3.org/2000/svg" width="24" height="25" viewBox="0 0 24 25" fill="none">
    <path d="M5.53601 22.4214C5.69777 22.5056 5.8794 22.5441 6.06139 22.5328C6.24338 22.5215 6.41886 22.4609 6.56901 22.3574L19.569 13.3574C19.7018 13.2654 19.8104 13.1425 19.8854 12.9994C19.9604 12.8562 19.9995 12.697 19.9995 12.5354C19.9995 12.3738 19.9604 12.2146 19.8854 12.0715C19.8104 11.9283 19.7018 11.8055 19.569 11.7134L6.56901 2.71343C6.41915 2.60888 6.24346 2.54749 6.0611 2.53593C5.87874 2.52438 5.69671 2.56311 5.53486 2.64791C5.373 2.73271 5.23753 2.86031 5.14322 3.01681C5.0489 3.17331 4.99937 3.35271 5.00001 3.53543V21.5354C4.99998 21.718 5.04991 21.897 5.14439 22.0532C5.23888 22.2094 5.37431 22.3367 5.53601 22.4214ZM7.00001 5.44443L17.243 12.5354L7.00001 19.6264V5.44443Z" fill="#EFEFEF"/>
</svg>