<svg xmlns="http://www.w3.org/2000/svg" width="25" height="25" viewBox="0 0 25 25" fill="none">
    <path fill-rule="evenodd" clip-rule="evenodd" d="M5.5 4.5354C5.5 3.98312 5.94772 3.5354 6.5 3.5354H10.5C11.0523 3.5354 11.5 3.98312 11.5 4.5354V20.5354C11.5 21.0877 11.0523 21.5354 10.5 21.5354H6.5C5.94772 21.5354 5.5 21.0877 5.5 20.5354V4.5354ZM7.5 5.5354V19.5354H9.5V5.5354H7.5Z" fill="black" fill-opacity="0.8"/>
    <path fill-rule="evenodd" clip-rule="evenodd" d="M13.5 4.5354C13.5 3.98312 13.9477 3.5354 14.5 3.5354H18.5C19.0523 3.5354 19.5 3.98312 19.5 4.5354V20.5354C19.5 21.0877 19.0523 21.5354 18.5 21.5354H14.5C13.9477 21.5354 13.5 21.0877 13.5 20.5354V4.5354ZM15.5 5.5354V19.5354H17.5V5.5354H15.5Z" fill="black" fill-opacity="0.8"/>
</svg>